<?xml version="1.0" encoding="UTF-8"?>
<svg xmlns="http://www.w3.org/2000/svg"
     width="48" height="48"
     viewBox="0 0 48 48"
     role="img" aria-label="Google icon">
  <path fill="#EA4335" d="M24 9.5c3.54 0 6.71 1.22 9.21 3.61l6.85-6.85C35.9 2.38 30.47 0 24 0 14.62 0 6.4 5.38 2.48 13.22l7.98 6.2C12.3 13.72 17.74 9.5 24 9.5z"/>
  <path fill="#4285F4" d="M46.5 24.5c0-1.57-.14-3.08-.41-4.54H24v9h12.65c-.55 2.91-2.21 5.39-4.69 7.05l7.58 5.9C43.86 37.5 46.5 31.5 46.5 24.5z"/>
  <path fill="#FBBC05" d="M10.46 28.42c-.5-1.45-.78-3-.78-4.42s.28-2.97.78-4.42l-7.98-6.2C.9 16.45 0 20.12 0 24s.9 7.55 2.48 10.62l7.98-6.2z"/>
  <path fill="#34A853" d="M24 48c6.48 0 11.9-2.13 15.87-5.77l-7.58-5.9c-2.1 1.42-4.77 2.27-8.29 2.27-6.26 0-11.7-4.22-13.54-10.08l-7.98 6.2C6.4 42.62 14.62 48 24 48z"/>
</svg>
